<svg width="1128" height="346" xmlns="http://www.w3.org/2000/svg" xmlns:xlink="http://www.w3.org/1999/xlink" overflow="hidden"><defs><filter id="fx0" x="-10%" y="-10%" width="120%" height="120%" filterUnits="userSpaceOnUse" primitiveUnits="userSpaceOnUse"><feComponentTransfer color-interpolation-filters="sRGB"><feFuncR type="discrete" tableValues="0 0"/><feFuncG type="discrete" tableValues="0 0"/><feFuncB type="discrete" tableValues="0 0"/><feFuncA type="linear" slope="0.631373" intercept="0"/></feComponentTransfer><feGaussianBlur stdDeviation="2 2"/></filter><filter id="fx1" x="-10%" y="-10%" width="120%" height="120%" filterUnits="userSpaceOnUse" primitiveUnits="userSpaceOnUse"><feComponentTransfer color-interpolation-filters="sRGB"><feFuncR type="discrete" tableValues="0 0"/><feFuncG type="discrete" tableValues="0 0"/><feFuncB type="discrete" tableValues="0 0"/><feFuncA type="linear" slope="0.631373" intercept="0"/></feComponentTransfer><feGaussianBlur stdDeviation="2 2"/></filter><filter id="fx2" x="-10%" y="-10%" width="120%" height="120%" filterUnits="userSpaceOnUse" primitiveUnits="userSpaceOnUse"><feComponentTransfer color-interpolation-filters="sRGB"><feFuncR type="discrete" tableValues="0 0"/><feFuncG type="discrete" tableValues="0 0"/><feFuncB type="discrete" tableValues="0 0"/><feFuncA type="linear" slope="0.631373" intercept="0"/></feComponentTransfer><feGaussianBlur stdDeviation="2 2"/></filter><clipPath id="clip3"><rect x="76" y="240" width="1128" height="346"/></clipPath><clipPath id="clip4"><rect x="76" y="240" width="1116" height="344"/></clipPath><clipPath id="clip5"><rect x="175" y="260" width="1003" height="235"/></clipPath><clipPath id="clip6"><rect x="-2" y="-2" width="889" height="163"/></clipPath><clipPath id="clip7"><rect x="0" y="0" width="885" height="156"/></clipPath><clipPath id="clip8"><rect x="175" y="260" width="1003" height="235"/></clipPath><clipPath id="clip9"><rect x="-2" y="-2" width="889" height="229"/></clipPath><clipPath id="clip10"><rect x="0" y="0" width="886" height="222"/></clipPath><clipPath id="clip11"><rect x="175" y="260" width="1003" height="235"/></clipPath><clipPath id="clip12"><rect x="-2" y="-2" width="889" height="229"/></clipPath><clipPath id="clip13"><rect x="0" y="0" width="886" height="222"/></clipPath><clipPath id="clip14"><rect x="175" y="260" width="1003" height="235"/></clipPath><clipPath id="clip15"><rect x="175" y="260" width="1003" height="235"/></clipPath><clipPath id="clip16"><rect x="175" y="260" width="1003" height="235"/></clipPath><clipPath id="clip17"><rect x="76" y="240" width="1116" height="344"/></clipPath><clipPath id="clip18"><rect x="76" y="240" width="1116" height="344"/></clipPath><clipPath id="clip19"><rect x="76" y="240" width="1116" height="344"/></clipPath><clipPath id="clip20"><rect x="76" y="240" width="1116" height="344"/></clipPath><clipPath id="clip21"><rect x="76" y="240" width="1116" height="344"/></clipPath><clipPath id="clip22"><rect x="76" y="240" width="1116" height="344"/></clipPath><clipPath id="clip23"><rect x="76" y="240" width="1116" height="344"/></clipPath><clipPath id="clip24"><rect x="76" y="240" width="1116" height="344"/></clipPath><clipPath id="clip25"><rect x="76" y="240" width="1116" height="344"/></clipPath><clipPath id="clip26"><rect x="76" y="240" width="1116" height="344"/></clipPath><clipPath id="clip27"><rect x="76" y="240" width="1116" height="344"/></clipPath><clipPath id="clip28"><rect x="76" y="240" width="1116" height="344"/></clipPath><clipPath id="clip29"><rect x="76" y="240" width="1116" height="344"/></clipPath><clipPath id="clip30"><rect x="76" y="240" width="1116" height="344"/></clipPath><clipPath id="clip31"><rect x="76" y="240" width="1116" height="344"/></clipPath><clipPath id="clip32"><rect x="76" y="240" width="1116" height="344"/></clipPath><clipPath id="clip33"><rect x="76" y="240" width="1116" height="344"/></clipPath><clipPath id="clip34"><rect x="76" y="240" width="1116" height="344"/></clipPath><clipPath id="clip35"><rect x="76" y="240" width="1116" height="344"/></clipPath><clipPath id="clip36"><rect x="76" y="240" width="1116" height="344"/></clipPath></defs><g clip-path="url(#clip3)" transform="translate(-76 -240)"><rect x="77" y="241" width="1126" height="344" fill="#FFFFFF"/><g clip-path="url(#clip4)"><path d="M175.5 447.5 1177.5 447.5M175.5 401.5 1177.5 401.5M175.5 354.5 1177.5 354.5M175.5 307.5 1177.5 307.5M175.5 260.5 1177.5 260.5" stroke="#D9D9D9" stroke-linejoin="round" stroke-miterlimit="10" fill="none"/></g><g clip-path="url(#clip5)"><g clip-path="url(#clip6)" filter="url(#fx0)" transform="translate(188 345)"><g clip-path="url(#clip7)"><path d="M7 107 44 107 44 152 7 152ZM173 124 211 124 211 152 173 152ZM340 7 378 7 378 152 340 152ZM507 111 545 111 545 152 507 152ZM674 129 711 129 711 152 674 152ZM841 147 878 147 878 152 841 152Z" fill="#ED7D31"/></g></g></g><g clip-path="url(#clip8)"><g clip-path="url(#clip9)" filter="url(#fx1)" transform="translate(234 279)"><g clip-path="url(#clip10)"><path d="M7 83 44 83 44 218 7 218ZM174 149 211 149 211 218 174 218ZM341 7 378 7 378 218 341 218ZM507 133 545 133 545 218 507 218ZM674 165 712 165 712 218 674 218ZM841 194 879 194 879 218 841 218Z" fill="#5B9BD5"/></g></g></g><g clip-path="url(#clip11)"><g clip-path="url(#clip12)" filter="url(#fx2)" transform="translate(280 279)"><g clip-path="url(#clip13)"><path d="M7 33 44 33 44 218 7 218ZM174 100 211 100 211 218 174 218ZM341 7 378 7 378 218 341 218ZM508 69 545 69 545 218 508 218ZM675 91 712 91 712 218 675 218ZM841 184 879 184 879 218 841 218Z" fill="#FFC000"/></g></g></g><g clip-path="url(#clip14)"><path d="M195 450 232 450 232 495 195 495ZM361 467 399 467 399 495 361 495ZM528 350 566 350 566 495 528 495ZM695 454 733 454 733 495 695 495ZM862 472 899 472 899 495 862 495ZM1029 490 1066 490 1066 495 1029 495Z" fill="#ED7D31"/></g><g clip-path="url(#clip15)"><path d="M241 360 278 360 278 495 241 495ZM408 426 445 426 445 495 408 495ZM575 284 612 284 612 495 575 495ZM741 410 779 410 779 495 741 495ZM908 442 946 442 946 495 908 495ZM1075 471 1113 471 1113 495 1075 495Z" fill="#5B9BD5"/></g><g clip-path="url(#clip16)"><path d="M287 310 324 310 324 495 287 495ZM454 377 491 377 491 495 454 495ZM621 284 658 284 658 495 621 495ZM788 346 825 346 825 495 788 495ZM955 368 992 368 992 495 955 495ZM1121 461 1159 461 1159 495 1121 495Z" fill="#FFC000"/></g><g clip-path="url(#clip17)"><path d="M175.5 494.5 1177.5 494.5" stroke="#D9D9D9" stroke-width="1.33333" stroke-linejoin="round" stroke-miterlimit="10" fill="none" fill-rule="evenodd"/></g><g clip-path="url(#clip18)"><text fill="#595959" font-family="Calibri,Calibri_MSFontService,sans-serif" font-weight="700" font-size="21" transform="translate(145.333 501)">0</text></g><g clip-path="url(#clip19)"><text fill="#595959" font-family="Calibri,Calibri_MSFontService,sans-serif" font-weight="700" font-size="21" transform="translate(134.52 454)">20</text></g><g clip-path="url(#clip20)"><text fill="#595959" font-family="Calibri,Calibri_MSFontService,sans-serif" font-weight="700" font-size="21" transform="translate(134.52 407)">40</text></g><g clip-path="url(#clip21)"><text fill="#595959" font-family="Calibri,Calibri_MSFontService,sans-serif" font-weight="700" font-size="21" transform="translate(134.52 360)">60</text></g><g clip-path="url(#clip22)"><text fill="#595959" font-family="Calibri,Calibri_MSFontService,sans-serif" font-weight="700" font-size="21" transform="translate(134.52 313)">80</text></g><g clip-path="url(#clip23)"><text fill="#595959" font-family="Calibri,Calibri_MSFontService,sans-serif" font-weight="700" font-size="21" transform="translate(123.707 266)">100</text></g><g clip-path="url(#clip24)"><text fill="#595959" font-family="Calibri,Calibri_MSFontService,sans-serif" font-weight="700" font-size="21" transform="translate(221.784 528)">ResNeXt</text></g><g clip-path="url(#clip25)"><text fill="#595959" font-family="Calibri,Calibri_MSFontService,sans-serif" font-weight="700" font-size="21" transform="translate(391.66 528)">NASNet</text></g><g clip-path="url(#clip26)"><text fill="#595959" font-family="Calibri,Calibri_MSFontService,sans-serif" font-weight="700" font-size="21" transform="translate(557.739 528)">AlexNet</text></g><g clip-path="url(#clip27)"><text fill="#595959" font-family="Calibri,Calibri_MSFontService,sans-serif" font-weight="700" font-size="21" transform="translate(699.798 528)">DeepSpeech2</text></g><g clip-path="url(#clip28)"><text fill="#595959" font-family="Calibri,Calibri_MSFontService,sans-serif" font-weight="700" font-size="21" transform="translate(902.828 528)">LSTM</text></g><g clip-path="url(#clip29)"><text fill="#595959" font-family="Calibri,Calibri_MSFontService,sans-serif" font-weight="700" font-size="21" transform="translate(1056.2 528)">Seq2Seq</text></g><g clip-path="url(#clip30)"><text fill="#595959" font-family="Calibri,Calibri_MSFontService,sans-serif" font-weight="700" font-size="21" transform="matrix(6.12323e-17 -1 1 6.12323e-17 113.667 462)">GPU Utilizaiton (%)</text></g><g clip-path="url(#clip31)"><rect x="485" y="554" width="12" height="12" fill="#ED7D31"/></g><g clip-path="url(#clip32)"><text fill="#595959" font-family="Calibri,Calibri_MSFontService,sans-serif" font-weight="700" font-size="21" transform="translate(502.473 566)">TF</text></g><g clip-path="url(#clip33)"><rect x="543" y="554" width="12" height="12" fill="#5B9BD5"/></g><g clip-path="url(#clip34)"><text fill="#595959" font-family="Calibri,Calibri_MSFontService,sans-serif" font-weight="700" font-size="21" transform="translate(560.441 566)">RammerBase</text></g><g clip-path="url(#clip35)"><rect x="698" y="554" width="12" height="12" fill="#FFC000"/></g><g clip-path="url(#clip36)"><text fill="#595959" font-family="Calibri,Calibri_MSFontService,sans-serif" font-weight="700" font-size="21" transform="translate(715.382 566)">Rammer</text></g></g></svg>